# Tiled2Unity generated file. Do not modify by hand.
# Wavefront file for 'Test-A_mesh_0001.obj'

# Vertices (Count = 884)
v 0 -48 0
v -48 -48 0
v -48 0 0
v 0 0 0
v -48 -48 0
v -96 -48 0
v -96 0 0
v -48 0 0
v -96 -48 0
v -144 -48 0
v -144 0 0
v -96 0 0
v -144 -48 0
v -192 -48 0
v -192 0 0
v -144 0 0
v -192 -48 0
v -240 -48 0
v -240 0 0
v -192 0 0
v -240 -48 0
v -288 -48 0
v -288 0 0
v -240 0 0
v -288 -48 0
v -336 -48 0
v -336 0 0
v -288 0 0
v -336 -48 0
v -384 -48 0
v -384 0 0
v -336 0 0
v -384 -48 0
v -432 -48 0
v -432 0 0
v -384 0 0
v -432 -48 0
v -480 -48 0
v -480 0 0
v -432 0 0
v -480 -48 0
v -528 -48 0
v -528 0 0
v -480 0 0
v -528 -48 0
v -576 -48 0
v -576 0 0
v -528 0 0
v -576 -48 0
v -624 -48 0
v -624 0 0
v -576 0 0
v -624 -48 0
v -672 -48 0
v -672 0 0
v -624 0 0
v -672 -48 0
v -720 -48 0
v -720 0 0
v -672 0 0
v -720 -48 0
v -768 -48 0
v -768 0 0
v -720 0 0
v -768 -48 0
v -816 -48 0
v -816 0 0
v -768 0 0
v 0 -96 0
v -48 -96 0
v -48 -48 0
v 0 -48 0
v -48 -96 0
v -96 -96 0
v -96 -48 0
v -48 -48 0
v -96 -96 0
v -144 -96 0
v -144 -48 0
v -96 -48 0
v -144 -96 0
v -192 -96 0
v -192 -48 0
v -144 -48 0
v -192 -96 0
v -240 -96 0
v -240 -48 0
v -192 -48 0
v -240 -96 0
v -288 -96 0
v -288 -48 0
v -240 -48 0
v -288 -96 0
v -336 -96 0
v -336 -48 0
v -288 -48 0
v -336 -96 0
v -384 -96 0
v -384 -48 0
v -336 -48 0
v -384 -96 0
v -432 -96 0
v -432 -48 0
v -384 -48 0
v -432 -96 0
v -480 -96 0
v -480 -48 0
v -432 -48 0
v -480 -96 0
v -528 -96 0
v -528 -48 0
v -480 -48 0
v -528 -96 0
v -576 -96 0
v -576 -48 0
v -528 -48 0
v -576 -96 0
v -624 -96 0
v -624 -48 0
v -576 -48 0
v -624 -96 0
v -672 -96 0
v -672 -48 0
v -624 -48 0
v -672 -96 0
v -720 -96 0
v -720 -48 0
v -672 -48 0
v -720 -96 0
v -768 -96 0
v -768 -48 0
v -720 -48 0
v -768 -96 0
v -816 -96 0
v -816 -48 0
v -768 -48 0
v 0 -144 0
v -48 -144 0
v -48 -96 0
v 0 -96 0
v -48 -144 0
v -96 -144 0
v -96 -96 0
v -48 -96 0
v -96 -144 0
v -144 -144 0
v -144 -96 0
v -96 -96 0
v -144 -144 0
v -192 -144 0
v -192 -96 0
v -144 -96 0
v -192 -144 0
v -240 -144 0
v -240 -96 0
v -192 -96 0
v -240 -144 0
v -288 -144 0
v -288 -96 0
v -240 -96 0
v -288 -144 0
v -336 -144 0
v -336 -96 0
v -288 -96 0
v -336 -144 0
v -384 -144 0
v -384 -96 0
v -336 -96 0
v -384 -144 0
v -432 -144 0
v -432 -96 0
v -384 -96 0
v -432 -144 0
v -480 -144 0
v -480 -96 0
v -432 -96 0
v -480 -144 0
v -528 -144 0
v -528 -96 0
v -480 -96 0
v -528 -144 0
v -576 -144 0
v -576 -96 0
v -528 -96 0
v -576 -144 0
v -624 -144 0
v -624 -96 0
v -576 -96 0
v -624 -144 0
v -672 -144 0
v -672 -96 0
v -624 -96 0
v -672 -144 0
v -720 -144 0
v -720 -96 0
v -672 -96 0
v -720 -144 0
v -768 -144 0
v -768 -96 0
v -720 -96 0
v -768 -144 0
v -816 -144 0
v -816 -96 0
v -768 -96 0
v 0 -192 0
v -48 -192 0
v -48 -144 0
v 0 -144 0
v -48 -192 0
v -96 -192 0
v -96 -144 0
v -48 -144 0
v -96 -192 0
v -144 -192 0
v -144 -144 0
v -96 -144 0
v -144 -192 0
v -192 -192 0
v -192 -144 0
v -144 -144 0
v -192 -192 0
v -240 -192 0
v -240 -144 0
v -192 -144 0
v -240 -192 0
v -288 -192 0
v -288 -144 0
v -240 -144 0
v -288 -192 0
v -336 -192 0
v -336 -144 0
v -288 -144 0
v -336 -192 0
v -384 -192 0
v -384 -144 0
v -336 -144 0
v -384 -192 0
v -432 -192 0
v -432 -144 0
v -384 -144 0
v -432 -192 0
v -480 -192 0
v -480 -144 0
v -432 -144 0
v -480 -192 0
v -528 -192 0
v -528 -144 0
v -480 -144 0
v -528 -192 0
v -576 -192 0
v -576 -144 0
v -528 -144 0
v -576 -192 0
v -624 -192 0
v -624 -144 0
v -576 -144 0
v -624 -192 0
v -672 -192 0
v -672 -144 0
v -624 -144 0
v -672 -192 0
v -720 -192 0
v -720 -144 0
v -672 -144 0
v -720 -192 0
v -768 -192 0
v -768 -144 0
v -720 -144 0
v -768 -192 0
v -816 -192 0
v -816 -144 0
v -768 -144 0
v 0 -240 0
v -48 -240 0
v -48 -192 0
v 0 -192 0
v -48 -240 0
v -96 -240 0
v -96 -192 0
v -48 -192 0
v -96 -240 0
v -144 -240 0
v -144 -192 0
v -96 -192 0
v -144 -240 0
v -192 -240 0
v -192 -192 0
v -144 -192 0
v -192 -240 0
v -240 -240 0
v -240 -192 0
v -192 -192 0
v -240 -240 0
v -288 -240 0
v -288 -192 0
v -240 -192 0
v -288 -240 0
v -336 -240 0
v -336 -192 0
v -288 -192 0
v -336 -240 0
v -384 -240 0
v -384 -192 0
v -336 -192 0
v -384 -240 0
v -432 -240 0
v -432 -192 0
v -384 -192 0
v -432 -240 0
v -480 -240 0
v -480 -192 0
v -432 -192 0
v -480 -240 0
v -528 -240 0
v -528 -192 0
v -480 -192 0
v -528 -240 0
v -576 -240 0
v -576 -192 0
v -528 -192 0
v -576 -240 0
v -624 -240 0
v -624 -192 0
v -576 -192 0
v -624 -240 0
v -672 -240 0
v -672 -192 0
v -624 -192 0
v -672 -240 0
v -720 -240 0
v -720 -192 0
v -672 -192 0
v -720 -240 0
v -768 -240 0
v -768 -192 0
v -720 -192 0
v -768 -240 0
v -816 -240 0
v -816 -192 0
v -768 -192 0
v 0 -288 0
v -48 -288 0
v -48 -240 0
v 0 -240 0
v -48 -288 0
v -96 -288 0
v -96 -240 0
v -48 -240 0
v -96 -288 0
v -144 -288 0
v -144 -240 0
v -96 -240 0
v -144 -288 0
v -192 -288 0
v -192 -240 0
v -144 -240 0
v -192 -288 0
v -240 -288 0
v -240 -240 0
v -192 -240 0
v -240 -288 0
v -288 -288 0
v -288 -240 0
v -240 -240 0
v -288 -288 0
v -336 -288 0
v -336 -240 0
v -288 -240 0
v -336 -288 0
v -384 -288 0
v -384 -240 0
v -336 -240 0
v -384 -288 0
v -432 -288 0
v -432 -240 0
v -384 -240 0
v -432 -288 0
v -480 -288 0
v -480 -240 0
v -432 -240 0
v -480 -288 0
v -528 -288 0
v -528 -240 0
v -480 -240 0
v -528 -288 0
v -576 -288 0
v -576 -240 0
v -528 -240 0
v -576 -288 0
v -624 -288 0
v -624 -240 0
v -576 -240 0
v -624 -288 0
v -672 -288 0
v -672 -240 0
v -624 -240 0
v -672 -288 0
v -720 -288 0
v -720 -240 0
v -672 -240 0
v -720 -288 0
v -768 -288 0
v -768 -240 0
v -720 -240 0
v -768 -288 0
v -816 -288 0
v -816 -240 0
v -768 -240 0
v 0 -336 0
v -48 -336 0
v -48 -288 0
v 0 -288 0
v -48 -336 0
v -96 -336 0
v -96 -288 0
v -48 -288 0
v -96 -336 0
v -144 -336 0
v -144 -288 0
v -96 -288 0
v -144 -336 0
v -192 -336 0
v -192 -288 0
v -144 -288 0
v -192 -336 0
v -240 -336 0
v -240 -288 0
v -192 -288 0
v -240 -336 0
v -288 -336 0
v -288 -288 0
v -240 -288 0
v -288 -336 0
v -336 -336 0
v -336 -288 0
v -288 -288 0
v -336 -336 0
v -384 -336 0
v -384 -288 0
v -336 -288 0
v -384 -336 0
v -432 -336 0
v -432 -288 0
v -384 -288 0
v -432 -336 0
v -480 -336 0
v -480 -288 0
v -432 -288 0
v -480 -336 0
v -528 -336 0
v -528 -288 0
v -480 -288 0
v -528 -336 0
v -576 -336 0
v -576 -288 0
v -528 -288 0
v -576 -336 0
v -624 -336 0
v -624 -288 0
v -576 -288 0
v -624 -336 0
v -672 -336 0
v -672 -288 0
v -624 -288 0
v -672 -336 0
v -720 -336 0
v -720 -288 0
v -672 -288 0
v -720 -336 0
v -768 -336 0
v -768 -288 0
v -720 -288 0
v -768 -336 0
v -816 -336 0
v -816 -288 0
v -768 -288 0
v 0 -384 0
v -48 -384 0
v -48 -336 0
v 0 -336 0
v -48 -384 0
v -96 -384 0
v -96 -336 0
v -48 -336 0
v -96 -384 0
v -144 -384 0
v -144 -336 0
v -96 -336 0
v -144 -384 0
v -192 -384 0
v -192 -336 0
v -144 -336 0
v -192 -384 0
v -240 -384 0
v -240 -336 0
v -192 -336 0
v -240 -384 0
v -288 -384 0
v -288 -336 0
v -240 -336 0
v -288 -384 0
v -336 -384 0
v -336 -336 0
v -288 -336 0
v -336 -384 0
v -384 -384 0
v -384 -336 0
v -336 -336 0
v -384 -384 0
v -432 -384 0
v -432 -336 0
v -384 -336 0
v -432 -384 0
v -480 -384 0
v -480 -336 0
v -432 -336 0
v -480 -384 0
v -528 -384 0
v -528 -336 0
v -480 -336 0
v -528 -384 0
v -576 -384 0
v -576 -336 0
v -528 -336 0
v -576 -384 0
v -624 -384 0
v -624 -336 0
v -576 -336 0
v -624 -384 0
v -672 -384 0
v -672 -336 0
v -624 -336 0
v -672 -384 0
v -720 -384 0
v -720 -336 0
v -672 -336 0
v -720 -384 0
v -768 -384 0
v -768 -336 0
v -720 -336 0
v -768 -384 0
v -816 -384 0
v -816 -336 0
v -768 -336 0
v 0 -432 0
v -48 -432 0
v -48 -384 0
v 0 -384 0
v -48 -432 0
v -96 -432 0
v -96 -384 0
v -48 -384 0
v -96 -432 0
v -144 -432 0
v -144 -384 0
v -96 -384 0
v -144 -432 0
v -192 -432 0
v -192 -384 0
v -144 -384 0
v -192 -432 0
v -240 -432 0
v -240 -384 0
v -192 -384 0
v -240 -432 0
v -288 -432 0
v -288 -384 0
v -240 -384 0
v -288 -432 0
v -336 -432 0
v -336 -384 0
v -288 -384 0
v -336 -432 0
v -384 -432 0
v -384 -384 0
v -336 -384 0
v -384 -432 0
v -432 -432 0
v -432 -384 0
v -384 -384 0
v -432 -432 0
v -480 -432 0
v -480 -384 0
v -432 -384 0
v -480 -432 0
v -528 -432 0
v -528 -384 0
v -480 -384 0
v -528 -432 0
v -576 -432 0
v -576 -384 0
v -528 -384 0
v -576 -432 0
v -624 -432 0
v -624 -384 0
v -576 -384 0
v -624 -432 0
v -672 -432 0
v -672 -384 0
v -624 -384 0
v -672 -432 0
v -720 -432 0
v -720 -384 0
v -672 -384 0
v -720 -432 0
v -768 -432 0
v -768 -384 0
v -720 -384 0
v -768 -432 0
v -816 -432 0
v -816 -384 0
v -768 -384 0
v 0 -480 0
v -48 -480 0
v -48 -432 0
v 0 -432 0
v -48 -480 0
v -96 -480 0
v -96 -432 0
v -48 -432 0
v -96 -480 0
v -144 -480 0
v -144 -432 0
v -96 -432 0
v -144 -480 0
v -192 -480 0
v -192 -432 0
v -144 -432 0
v -192 -480 0
v -240 -480 0
v -240 -432 0
v -192 -432 0
v -240 -480 0
v -288 -480 0
v -288 -432 0
v -240 -432 0
v -288 -480 0
v -336 -480 0
v -336 -432 0
v -288 -432 0
v -336 -480 0
v -384 -480 0
v -384 -432 0
v -336 -432 0
v -384 -480 0
v -432 -480 0
v -432 -432 0
v -384 -432 0
v -432 -480 0
v -480 -480 0
v -480 -432 0
v -432 -432 0
v -480 -480 0
v -528 -480 0
v -528 -432 0
v -480 -432 0
v -528 -480 0
v -576 -480 0
v -576 -432 0
v -528 -432 0
v -576 -480 0
v -624 -480 0
v -624 -432 0
v -576 -432 0
v -624 -480 0
v -672 -480 0
v -672 -432 0
v -624 -432 0
v -672 -480 0
v -720 -480 0
v -720 -432 0
v -672 -432 0
v -720 -480 0
v -768 -480 0
v -768 -432 0
v -720 -432 0
v -768 -480 0
v -816 -480 0
v -816 -432 0
v -768 -432 0
v 0 -528 0
v -48 -528 0
v -48 -480 0
v 0 -480 0
v -48 -528 0
v -96 -528 0
v -96 -480 0
v -48 -480 0
v -96 -528 0
v -144 -528 0
v -144 -480 0
v -96 -480 0
v -144 -528 0
v -192 -528 0
v -192 -480 0
v -144 -480 0
v -192 -528 0
v -240 -528 0
v -240 -480 0
v -192 -480 0
v -240 -528 0
v -288 -528 0
v -288 -480 0
v -240 -480 0
v -288 -528 0
v -336 -528 0
v -336 -480 0
v -288 -480 0
v -336 -528 0
v -384 -528 0
v -384 -480 0
v -336 -480 0
v -384 -528 0
v -432 -528 0
v -432 -480 0
v -384 -480 0
v -432 -528 0
v -480 -528 0
v -480 -480 0
v -432 -480 0
v -480 -528 0
v -528 -528 0
v -528 -480 0
v -480 -480 0
v -528 -528 0
v -576 -528 0
v -576 -480 0
v -528 -480 0
v -576 -528 0
v -624 -528 0
v -624 -480 0
v -576 -480 0
v -624 -528 0
v -672 -528 0
v -672 -480 0
v -624 -480 0
v -672 -528 0
v -720 -528 0
v -720 -480 0
v -672 -480 0
v -720 -528 0
v -768 -528 0
v -768 -480 0
v -720 -480 0
v -768 -528 0
v -816 -528 0
v -816 -480 0
v -768 -480 0
v 0 -576 0
v -48 -576 0
v -48 -528 0
v 0 -528 0
v -48 -576 0
v -96 -576 0
v -96 -528 0
v -48 -528 0
v -96 -576 0
v -144 -576 0
v -144 -528 0
v -96 -528 0
v -144 -576 0
v -192 -576 0
v -192 -528 0
v -144 -528 0
v -192 -576 0
v -240 -576 0
v -240 -528 0
v -192 -528 0
v -240 -576 0
v -288 -576 0
v -288 -528 0
v -240 -528 0
v -288 -576 0
v -336 -576 0
v -336 -528 0
v -288 -528 0
v -336 -576 0
v -384 -576 0
v -384 -528 0
v -336 -528 0
v -384 -576 0
v -432 -576 0
v -432 -528 0
v -384 -528 0
v -432 -576 0
v -480 -576 0
v -480 -528 0
v -432 -528 0
v -480 -576 0
v -528 -576 0
v -528 -528 0
v -480 -528 0
v -528 -576 0
v -576 -576 0
v -576 -528 0
v -528 -528 0
v -576 -576 0
v -624 -576 0
v -624 -528 0
v -576 -528 0
v -624 -576 0
v -672 -576 0
v -672 -528 0
v -624 -528 0
v -672 -576 0
v -720 -576 0
v -720 -528 0
v -672 -528 0
v -720 -576 0
v -768 -576 0
v -768 -528 0
v -720 -528 0
v -768 -576 0
v -816 -576 0
v -816 -528 0
v -768 -528 0
v 0 -624 0
v -48 -624 0
v -48 -576 0
v 0 -576 0
v -48 -624 0
v -96 -624 0
v -96 -576 0
v -48 -576 0
v -96 -624 0
v -144 -624 0
v -144 -576 0
v -96 -576 0
v -144 -624 0
v -192 -624 0
v -192 -576 0
v -144 -576 0
v -192 -624 0
v -240 -624 0
v -240 -576 0
v -192 -576 0
v -240 -624 0
v -288 -624 0
v -288 -576 0
v -240 -576 0
v -288 -624 0
v -336 -624 0
v -336 -576 0
v -288 -576 0
v -336 -624 0
v -384 -624 0
v -384 -576 0
v -336 -576 0
v -384 -624 0
v -432 -624 0
v -432 -576 0
v -384 -576 0
v -432 -624 0
v -480 -624 0
v -480 -576 0
v -432 -576 0
v -480 -624 0
v -528 -624 0
v -528 -576 0
v -480 -576 0
v -528 -624 0
v -576 -624 0
v -576 -576 0
v -528 -576 0
v -576 -624 0
v -624 -624 0
v -624 -576 0
v -576 -576 0
v -624 -624 0
v -672 -624 0
v -672 -576 0
v -624 -576 0
v -672 -624 0
v -720 -624 0
v -720 -576 0
v -672 -576 0
v -720 -624 0
v -768 -624 0
v -768 -576 0
v -720 -576 0
v -768 -624 0
v -816 -624 0
v -816 -576 0
v -768 -576 0

# Texture cooridinates (Count = 24)
vt 0 0.9375
vt 0.125 0.9375
vt 0.125 1
vt 0 1
vt 0.25 0.9375
vt 0.25 1
vt 0 0.6875
vt 0.125 0.6875
vt 0.125 0.75
vt 0 0.75
vt 0.25 0.6875
vt 0.25 0.75
vt 0 0.875
vt 0.125 0.875
vt 0.25 0.875
vt 0 0.625
vt 0.125 0.625
vt 0.25 0.625
vt 0 0.8125
vt 0.125 0.8125
vt 0.25 0.8125
vt 0 0.5625
vt 0.125 0.5625
vt 0.25 0.5625

# Normal
vn 0 0 -1

# Mesh description
g Test-A_mesh_0001

# Faces
f 1/1/1 2/2/1 3/3/1 4/4/1
f 5/2/1 6/5/1 7/6/1 8/3/1
f 9/1/1 10/2/1 11/3/1 12/4/1
f 13/2/1 14/5/1 15/6/1 16/3/1
f 17/1/1 18/2/1 19/3/1 20/4/1
f 21/2/1 22/5/1 23/6/1 24/3/1
f 25/1/1 26/2/1 27/3/1 28/4/1
f 29/7/1 30/8/1 31/9/1 32/10/1
f 33/8/1 34/11/1 35/12/1 36/9/1
f 37/7/1 38/8/1 39/9/1 40/10/1
f 41/1/1 42/2/1 43/3/1 44/4/1
f 45/1/1 46/2/1 47/3/1 48/4/1
f 49/1/1 50/2/1 51/3/1 52/4/1
f 53/1/1 54/2/1 55/3/1 56/4/1
f 57/1/1 58/2/1 59/3/1 60/4/1
f 61/1/1 62/2/1 63/3/1 64/4/1
f 65/2/1 66/5/1 67/6/1 68/3/1
f 69/13/1 70/14/1 71/2/1 72/1/1
f 73/14/1 74/15/1 75/5/1 76/2/1
f 77/13/1 78/14/1 79/2/1 80/1/1
f 81/14/1 82/15/1 83/5/1 84/2/1
f 85/13/1 86/14/1 87/2/1 88/1/1
f 89/14/1 90/15/1 91/5/1 92/2/1
f 93/13/1 94/14/1 95/2/1 96/1/1
f 97/16/1 98/17/1 99/8/1 100/7/1
f 101/17/1 102/18/1 103/11/1 104/8/1
f 105/16/1 106/17/1 107/8/1 108/7/1
f 109/13/1 110/14/1 111/2/1 112/1/1
f 113/13/1 114/14/1 115/2/1 116/1/1
f 117/13/1 118/14/1 119/2/1 120/1/1
f 121/13/1 122/14/1 123/2/1 124/1/1
f 125/13/1 126/14/1 127/2/1 128/1/1
f 129/1/1 130/2/1 131/3/1 132/4/1
f 133/2/1 134/5/1 135/6/1 136/3/1
f 137/19/1 138/20/1 139/14/1 140/13/1
f 141/20/1 142/21/1 143/15/1 144/14/1
f 145/19/1 146/20/1 147/14/1 148/13/1
f 149/20/1 150/21/1 151/15/1 152/14/1
f 153/19/1 154/20/1 155/14/1 156/13/1
f 157/20/1 158/21/1 159/15/1 160/14/1
f 161/19/1 162/20/1 163/14/1 164/13/1
f 165/22/1 166/23/1 167/17/1 168/16/1
f 169/23/1 170/24/1 171/18/1 172/17/1
f 173/22/1 174/23/1 175/17/1 176/16/1
f 177/19/1 178/20/1 179/14/1 180/13/1
f 181/19/1 182/20/1 183/14/1 184/13/1
f 185/19/1 186/20/1 187/14/1 188/13/1
f 189/19/1 190/20/1 191/14/1 192/13/1
f 193/19/1 194/20/1 195/14/1 196/13/1
f 197/1/1 198/2/1 199/3/1 200/4/1
f 201/2/1 202/5/1 203/6/1 204/3/1
f 205/1/1 206/2/1 207/3/1 208/4/1
f 209/2/1 210/5/1 211/6/1 212/3/1
f 213/1/1 214/2/1 215/3/1 216/4/1
f 217/2/1 218/5/1 219/6/1 220/3/1
f 221/1/1 222/2/1 223/3/1 224/4/1
f 225/2/1 226/5/1 227/6/1 228/3/1
f 229/1/1 230/2/1 231/3/1 232/4/1
f 233/7/1 234/8/1 235/9/1 236/10/1
f 237/8/1 238/11/1 239/12/1 240/9/1
f 241/7/1 242/8/1 243/9/1 244/10/1
f 245/1/1 246/2/1 247/3/1 248/4/1
f 249/2/1 250/5/1 251/6/1 252/3/1
f 253/1/1 254/2/1 255/3/1 256/4/1
f 257/2/1 258/5/1 259/6/1 260/3/1
f 261/1/1 262/2/1 263/3/1 264/4/1
f 265/2/1 266/5/1 267/6/1 268/3/1
f 269/2/1 270/5/1 271/6/1 272/3/1
f 273/13/1 274/14/1 275/2/1 276/1/1
f 277/14/1 278/15/1 279/5/1 280/2/1
f 281/13/1 282/14/1 283/2/1 284/1/1
f 285/14/1 286/15/1 287/5/1 288/2/1
f 289/13/1 290/14/1 291/2/1 292/1/1
f 293/14/1 294/15/1 295/5/1 296/2/1
f 297/13/1 298/14/1 299/2/1 300/1/1
f 301/16/1 302/17/1 303/8/1 304/7/1
f 305/17/1 306/18/1 307/11/1 308/8/1
f 309/16/1 310/17/1 311/8/1 312/7/1
f 313/13/1 314/14/1 315/2/1 316/1/1
f 317/14/1 318/15/1 319/5/1 320/2/1
f 321/13/1 322/14/1 323/2/1 324/1/1
f 325/14/1 326/15/1 327/5/1 328/2/1
f 329/13/1 330/14/1 331/2/1 332/1/1
f 333/14/1 334/15/1 335/5/1 336/2/1
f 337/14/1 338/15/1 339/5/1 340/2/1
f 341/19/1 342/20/1 343/14/1 344/13/1
f 345/20/1 346/21/1 347/15/1 348/14/1
f 349/19/1 350/20/1 351/14/1 352/13/1
f 353/20/1 354/21/1 355/15/1 356/14/1
f 357/19/1 358/20/1 359/14/1 360/13/1
f 361/20/1 362/21/1 363/15/1 364/14/1
f 365/19/1 366/20/1 367/14/1 368/13/1
f 369/22/1 370/23/1 371/17/1 372/16/1
f 373/23/1 374/24/1 375/18/1 376/17/1
f 377/22/1 378/23/1 379/17/1 380/16/1
f 381/19/1 382/20/1 383/14/1 384/13/1
f 385/20/1 386/21/1 387/15/1 388/14/1
f 389/19/1 390/20/1 391/14/1 392/13/1
f 393/20/1 394/21/1 395/15/1 396/14/1
f 397/19/1 398/20/1 399/14/1 400/13/1
f 401/20/1 402/21/1 403/15/1 404/14/1
f 405/20/1 406/21/1 407/15/1 408/14/1
f 409/1/1 410/2/1 411/3/1 412/4/1
f 413/2/1 414/5/1 415/6/1 416/3/1
f 417/1/1 418/2/1 419/3/1 420/4/1
f 421/2/1 422/5/1 423/6/1 424/3/1
f 425/1/1 426/2/1 427/3/1 428/4/1
f 429/2/1 430/5/1 431/6/1 432/3/1
f 433/1/1 434/2/1 435/3/1 436/4/1
f 437/7/1 438/8/1 439/9/1 440/10/1
f 441/8/1 442/11/1 443/12/1 444/9/1
f 445/7/1 446/8/1 447/9/1 448/10/1
f 449/1/1 450/2/1 451/3/1 452/4/1
f 453/2/1 454/5/1 455/6/1 456/3/1
f 457/1/1 458/2/1 459/3/1 460/4/1
f 461/2/1 462/5/1 463/6/1 464/3/1
f 465/1/1 466/2/1 467/3/1 468/4/1
f 469/2/1 470/5/1 471/6/1 472/3/1
f 473/1/1 474/2/1 475/3/1 476/4/1
f 477/13/1 478/14/1 479/2/1 480/1/1
f 481/14/1 482/15/1 483/5/1 484/2/1
f 485/13/1 486/14/1 487/2/1 488/1/1
f 489/14/1 490/15/1 491/5/1 492/2/1
f 493/13/1 494/14/1 495/2/1 496/1/1
f 497/14/1 498/15/1 499/5/1 500/2/1
f 501/13/1 502/14/1 503/2/1 504/1/1
f 505/16/1 506/17/1 507/8/1 508/7/1
f 509/17/1 510/18/1 511/11/1 512/8/1
f 513/16/1 514/17/1 515/8/1 516/7/1
f 517/13/1 518/14/1 519/2/1 520/1/1
f 521/14/1 522/15/1 523/5/1 524/2/1
f 525/13/1 526/14/1 527/2/1 528/1/1
f 529/14/1 530/15/1 531/5/1 532/2/1
f 533/13/1 534/14/1 535/2/1 536/1/1
f 537/14/1 538/15/1 539/5/1 540/2/1
f 541/13/1 542/14/1 543/2/1 544/1/1
f 545/19/1 546/20/1 547/14/1 548/13/1
f 549/20/1 550/21/1 551/15/1 552/14/1
f 553/19/1 554/20/1 555/14/1 556/13/1
f 557/20/1 558/21/1 559/15/1 560/14/1
f 561/19/1 562/20/1 563/14/1 564/13/1
f 565/20/1 566/21/1 567/15/1 568/14/1
f 569/19/1 570/20/1 571/14/1 572/13/1
f 573/22/1 574/23/1 575/17/1 576/16/1
f 577/23/1 578/24/1 579/18/1 580/17/1
f 581/22/1 582/23/1 583/17/1 584/16/1
f 585/19/1 586/20/1 587/14/1 588/13/1
f 589/20/1 590/21/1 591/15/1 592/14/1
f 593/19/1 594/20/1 595/14/1 596/13/1
f 597/20/1 598/21/1 599/15/1 600/14/1
f 601/19/1 602/20/1 603/14/1 604/13/1
f 605/20/1 606/21/1 607/15/1 608/14/1
f 609/19/1 610/20/1 611/14/1 612/13/1
f 613/1/1 614/2/1 615/3/1 616/4/1
f 617/2/1 618/5/1 619/6/1 620/3/1
f 621/1/1 622/2/1 623/3/1 624/4/1
f 625/2/1 626/5/1 627/6/1 628/3/1
f 629/1/1 630/2/1 631/3/1 632/4/1
f 633/2/1 634/5/1 635/6/1 636/3/1
f 637/1/1 638/2/1 639/3/1 640/4/1
f 641/7/1 642/8/1 643/9/1 644/10/1
f 645/8/1 646/11/1 647/12/1 648/9/1
f 649/7/1 650/8/1 651/9/1 652/10/1
f 653/1/1 654/2/1 655/3/1 656/4/1
f 657/2/1 658/5/1 659/6/1 660/3/1
f 661/1/1 662/2/1 663/3/1 664/4/1
f 665/2/1 666/5/1 667/6/1 668/3/1
f 669/1/1 670/2/1 671/3/1 672/4/1
f 673/2/1 674/5/1 675/6/1 676/3/1
f 677/1/1 678/2/1 679/3/1 680/4/1
f 681/13/1 682/14/1 683/2/1 684/1/1
f 685/14/1 686/15/1 687/5/1 688/2/1
f 689/13/1 690/14/1 691/2/1 692/1/1
f 693/14/1 694/15/1 695/5/1 696/2/1
f 697/13/1 698/14/1 699/2/1 700/1/1
f 701/14/1 702/15/1 703/5/1 704/2/1
f 705/13/1 706/14/1 707/2/1 708/1/1
f 709/16/1 710/17/1 711/8/1 712/7/1
f 713/17/1 714/18/1 715/11/1 716/8/1
f 717/16/1 718/17/1 719/8/1 720/7/1
f 721/13/1 722/14/1 723/2/1 724/1/1
f 725/14/1 726/15/1 727/5/1 728/2/1
f 729/13/1 730/14/1 731/2/1 732/1/1
f 733/14/1 734/15/1 735/5/1 736/2/1
f 737/13/1 738/14/1 739/2/1 740/1/1
f 741/14/1 742/15/1 743/5/1 744/2/1
f 745/13/1 746/14/1 747/2/1 748/1/1
f 749/19/1 750/20/1 751/14/1 752/13/1
f 753/20/1 754/21/1 755/15/1 756/14/1
f 757/19/1 758/20/1 759/14/1 760/13/1
f 761/20/1 762/21/1 763/15/1 764/14/1
f 765/19/1 766/20/1 767/14/1 768/13/1
f 769/20/1 770/21/1 771/15/1 772/14/1
f 773/19/1 774/20/1 775/14/1 776/13/1
f 777/22/1 778/23/1 779/17/1 780/16/1
f 781/23/1 782/24/1 783/18/1 784/17/1
f 785/22/1 786/23/1 787/17/1 788/16/1
f 789/19/1 790/20/1 791/14/1 792/13/1
f 793/20/1 794/21/1 795/15/1 796/14/1
f 797/19/1 798/20/1 799/14/1 800/13/1
f 801/20/1 802/21/1 803/15/1 804/14/1
f 805/19/1 806/20/1 807/14/1 808/13/1
f 809/20/1 810/21/1 811/15/1 812/14/1
f 813/19/1 814/20/1 815/14/1 816/13/1
f 817/1/1 818/2/1 819/3/1 820/4/1
f 821/2/1 822/5/1 823/6/1 824/3/1
f 825/1/1 826/2/1 827/3/1 828/4/1
f 829/2/1 830/5/1 831/6/1 832/3/1
f 833/1/1 834/2/1 835/3/1 836/4/1
f 837/2/1 838/5/1 839/6/1 840/3/1
f 841/1/1 842/2/1 843/3/1 844/4/1
f 845/7/1 846/8/1 847/9/1 848/10/1
f 849/8/1 850/11/1 851/12/1 852/9/1
f 853/7/1 854/8/1 855/9/1 856/10/1
f 857/1/1 858/2/1 859/3/1 860/4/1
f 861/2/1 862/5/1 863/6/1 864/3/1
f 865/1/1 866/2/1 867/3/1 868/4/1
f 869/2/1 870/5/1 871/6/1 872/3/1
f 873/1/1 874/2/1 875/3/1 876/4/1
f 877/2/1 878/5/1 879/6/1 880/3/1
f 881/1/1 882/2/1 883/3/1 884/4/1

